PathFileType	4	(X/Y/Z)	Patient4_TMGait_0pt7_02_left_31.trc.trc
DataRate	CameraRate	NumFrames	NumMarkers	Units	OrigDataRate	OrigDataStartFrame	OrigNumFrames
87.500000000000	87.500000000000	5	33	mm	87.500000000000	18	       141
Frame#	Time	Sacral			L.Shoulder			Chest			R.Shoulder			Neck			R.ASIS			L.ASIS			R.Thigh.Superior			R.Thigh.Lateral			R.Thigh.Inferior			R.Patella			L.Thigh.Superior			L.Thigh.Lateral			L.Thigh.Inferior			L.Patella			L.Shank.Superior			L.Shank.Lateral			L.Shank.Inferior			R.Shank.Superior			R.Shank.Lateral			R.Shank.Inferior			R.Heel			R.Midfoot.Superior			R.Midfoot.Lateral			R.Toe			L.Heel			L.Midfoot.Lateral			L.Midfoot.Superior			L.Toe			L.Elbow			L.Wrist			R.Elbow			R.Wrist			
		X1	Y1	Z1	X2	Y2	Z2	X3	Y3	Z3	X4	Y4	Z4	X5	Y5	Z5	X6	Y6	Z6	X7	Y7	Z7	X8	Y8	Z8	X9	Y9	Z9	X10	Y10	Z10	X11	Y11	Z11	X12	Y12	Z12	X13	Y13	Z13	X14	Y14	Z14	X15	Y15	Z15	X16	Y16	Z16	X17	Y17	Z17	X18	Y18	Z18	X19	Y19	Z19	X20	Y20	Z20	X21	Y21	Z21	X22	Y22	Z22	X23	Y23	Z23	X24	Y24	Z24	X25	Y25	Z25	X26	Y26	Z26	X27	Y27	Z27	X28	Y28	Z28	X29	Y29	Z29	X30	Y30	Z30	X31	Y31	Z31	X32	Y32	Z32	X33	Y33	Z33	

18	35.624285714286	825.912985533912	1013.035886159948	530.500865394226	1028.009817417045	1426.242181932804	341.603881841739	1139.376513637679	1341.332423789468	490.447921952036	1084.106874154307	1422.845690934648	671.353130274987	1052.756148245167	1481.921715388282	496.635543524314	1048.698637030338	937.032399538624	642.817142920482	1030.308297672910	947.480039897212	366.477102495306	1043.835980196153	726.770751446395	619.010413436379	934.909085343949	635.425904492691	675.841062344434	998.472072478830	568.340989897457	599.625123641816	981.602371916821	485.172354223601	603.440479393347	1108.054105922584	786.378479305907	404.410184781077	1084.382340649107	658.290696840226	311.340061078811	1188.130039368797	605.954149697187	379.120723966034	1223.043912935343	538.505700220342	371.734944433333	1202.901278511363	462.601746535283	358.890872241073	1134.519552237055	339.204896952710	294.359543864750	1210.182463044770	232.153886616907	351.359262312099	945.517435892478	402.636905506610	606.327303059222	864.865331017343	303.513055290960	664.186176867856	903.165743778955	207.159629149051	598.724210645817	761.129380611358	44.332707292363	563.421751291295	934.345685576185	96.586970417054	598.352373876891	845.371138663375	36.871912892191	635.710671367631	1053.896890435423	40.826900671680	622.228048548160	1114.571815651991	55.149093364568	371.790859951743	1196.347993789002	60.118146571574	299.602894118234	1267.738852486912	133.724354967108	330.728637757395	1402.263389722784	99.475260186903	316.483913243616	837.083169257545	1133.680653583115	245.644152185233	763.582594486339	882.941898439781	262.279976423230	1172.759593688487	1091.375111209664	785.876151784593	1408.632956751470	1064.965042271178	691.196211570984	
19	35.635714285714	826.637569782556	1011.297504618117	528.140207097033	1028.135117481172	1424.888739838091	339.856690006777	1139.211400203945	1340.346091386911	489.080004474981	1082.997400240563	1421.723566530404	669.749387228824	1052.101948002658	1480.626950159924	495.069620474739	1048.963905169271	935.746187919075	641.556958486180	1031.706178933266	945.637245846631	365.037589070415	1042.021055397599	725.075851239801	617.907858337406	931.774589692776	634.923315424439	674.839529817969	994.328299222786	567.086742622877	598.647830683250	976.678522927753	483.917058952950	602.590645261323	1107.793661346644	782.244581881591	403.422394259051	1081.907217434172	654.043242190306	310.524963332193	1184.870477745836	600.737386942908	378.566862096943	1219.147316283861	534.333486873533	371.753307114703	1200.388622673770	459.047111631659	358.917164118804	1134.452277680301	333.815861040158	295.448627962513	1212.734338598922	228.773497728181	352.759619925837	939.723048986599	401.923873857939	605.591300207660	858.563517640267	303.458662926324	663.848983320816	895.914323986613	206.769158548970	598.377206693261	753.048043065481	44.264113427376	563.424906504212	926.221194982409	96.491875451851	598.322909553106	837.271834339241	36.855920173608	635.804885070283	1045.820817156122	40.704784786032	622.250610641931	1120.937511280804	50.373131571989	374.422962497886	1202.594275458538	56.077616724133	302.126425259000	1272.963390210937	130.713913231320	332.821039591240	1408.028716340199	98.226155914375	318.678456021370	833.973113345886	1135.077761542626	244.854339768186	756.283852083795	885.585717503257	262.381119342997	1177.662563418785	1092.005944928245	781.830855990068	1412.473007575633	1079.708592633244	683.283724584507	
20	35.647142857143	827.503826536243	1009.545962336043	525.572716969012	1028.310696492379	1423.528542131326	337.876553816686	1139.091624095544	1339.509334031663	487.559650917451	1081.771247200471	1420.756097001836	667.939421568927	1051.429907257020	1479.396386495109	493.237746183560	1049.459557814826	934.452774772286	640.150404412102	1033.330526841313	943.865233465649	363.532475913992	1040.721399227030	723.431193668993	616.620099728596	929.262368637028	634.400633208720	673.681383896539	990.863130199414	565.840686051870	597.528961200020	972.403077061541	482.607959948587	601.592931416341	1107.932573675782	778.146320730281	402.128589280279	1079.419717687024	649.772122385533	309.840707582706	1181.861073514108	595.615176900792	377.799277940072	1215.244156962847	529.930338708262	371.630042499983	1197.477920486352	455.165492951386	358.949211906517	1132.869562157287	328.574424594199	297.165251691440	1213.229237049113	225.155407895066	354.582429114955	934.499000274645	401.150632290021	604.733178186860	852.705955451474	303.495735689961	663.446932947215	888.938005343945	206.400836313501	598.002094320344	745.014579409084	44.372485432802	563.458043578563	918.189569294019	96.437081849339	598.326657776887	829.226317401430	36.891949019756	635.912015747417	1037.779908685981	40.520675734808	622.283789927340	1123.956203995864	46.478260182379	377.998050388996	1205.228703934251	52.227935234777	305.312176278555	1275.317776655587	127.082347855804	335.401234696023	1410.482546277792	95.087693548930	320.882528022294	831.594898596456	1135.999630894715	243.841197368460	750.296846035133	887.624752166302	262.190322105371	1182.006056214718	1092.764399173826	777.671322526258	1414.970519067226	1094.041022550381	675.612766765805	
21	35.658571428571	828.480949511170	1007.861353020237	522.808707445695	1028.549547923574	1422.210408674127	335.668893335052	1139.041640135465	1338.844974647301	485.874072067158	1080.491619798973	1419.967874283492	665.918885981407	1050.773180125749	1478.268838918396	491.137368474721	1050.156005765504	933.181608546442	638.580018809102	1035.139316119401	942.222126545477	361.945392312869	1039.911546151031	721.859940752232	615.165037373934	927.332725087047	633.869577693434	672.350710776506	988.075058935858	564.606377619281	596.288399489123	968.774148235988	481.255920169118	600.447425635638	1108.451738725858	774.211606739191	400.518983889435	1076.958298959514	645.593812580726	309.347354655492	1179.173021432508	590.752016163102	376.897175445090	1211.425618751603	525.450109081192	371.498768911578	1194.295994789202	451.095623683583	359.067048629042	1130.036163674154	323.584371632528	299.352611065053	1211.888183635806	221.358797514148	356.728568221843	929.849560707180	400.324617544230	603.750136598949	847.277048043801	303.638244213066	662.955542470302	882.238705086364	206.068456059587	597.595449194412	737.030166697537	44.683765537640	563.519311755709	910.262662900737	96.435677467747	598.362952559939	821.235825579611	36.993942663052	636.028017425197	1029.775082234307	40.282942912448	622.327983769216	1123.842467348828	43.397345860867	382.137786975827	1204.572136579679	48.629819195010	308.869007612034	1275.062748416250	122.927420046946	338.351180234222	1409.969303093741	90.238230085253	323.088350573347	829.977111842899	1136.448171122910	242.555613924349	745.690540570511	889.027872866242	261.673539291224	1185.758468104330	1093.622889998087	773.460135792139	1416.197057945371	1107.804894977944	668.243132349896	
22	35.670000000000	829.536274090778	1006.326523211750	519.871638465727	1028.869856054945	1420.985541608151	333.246046312380	1139.088498716315	1338.366735756003	484.015863514839	1079.236417143764	1419.380443134804	663.689456332968	1050.174060167377	1477.284672490944	488.774642597372	1051.013519278381	931.969386084552	636.832693055013	1037.077217403514	940.766748142063	360.256782995305	1039.538038451495	720.392743149355	613.565515559671	925.925412675828	633.351072570647	670.841166401696	985.940286655214	563.398757730856	594.949304272346	965.775510045682	479.878968779500	599.165922969189	1109.313375501927	770.577602337949	398.604092738669	1074.585222904699	641.650920502044	309.064672773051	1176.865812671333	586.313185435311	375.938995201445	1207.784750932806	521.073198328096	371.474559109956	1190.988638211733	447.010555098421	359.319479899042	1126.303150153530	318.981149266754	301.781278929022	1209.018736118321	217.501564065194	359.058515883959	925.762653894124	399.462622434678	602.651618437118	842.248989646427	303.905336463399	662.357874984024	875.813460593932	205.793542604699	597.160409938812	729.096397311511	45.233259869275	563.609028534632	902.453659006395	96.500479157838	598.432834748685	813.301091936182	37.180668866266	636.149113476594	1021.806857766745	40.002854072641	622.381710627078	1120.978447227241	41.060626376977	386.421836701409	1201.114996444178	45.377485875020	312.478385831798	1272.566500052106	118.445641140879	341.507636324288	1406.953861133532	84.057249202201	325.277650996673	829.145573192137	1136.438085165859	240.955190817897	742.526025249745	889.776634334658	260.796916021985	1188.891458797587	1094.541163564033	769.269110190232	1416.243291640677	1120.846935759098	661.227762223921	
